<?xml version="1.0" standalone="no"?><!DOCTYPE svg PUBLIC "-//W3C//DTD SVG 1.1//EN" "http://www.w3.org/Graphics/SVG/1.1/DTD/svg11.dtd"><svg t="1494583017693" class="icon" style="" viewBox="0 0 1024 1024" version="1.1" xmlns="http://www.w3.org/2000/svg" p-id="2369" xmlns:xlink="http://www.w3.org/1999/xlink" width="200" height="200"><defs><style type="text/css"></style></defs><path d="M512.363785 960.828238c-247.530606 0-448.189695-200.666252-448.189695-448.192765 0-247.52856 200.660112-448.189695 448.189695-448.189695 247.52856 0 448.188672 200.662159 448.188672 448.189695C960.552457 760.161986 759.891322 960.828238 512.363785 960.828238zM762.517125 355.575368l-44.576241-44.612057c-8.214079-8.215102-21.515013-8.215102-29.732162 0l-267.38991 267.394003-127.201054-128.107703c-8.216125-8.214079-21.51092-8.214079-29.726022 0l-44.578288 44.577265c-8.215102 8.213056-8.215102 21.512966 0 29.729092l141.404544 142.482085c0.202615 0.201591 0.271176 0.473791 0.474814 0.672312l30.600949 30.606065 7.372921 7.440459 0-0.031722 6.600325 6.595208c8.217149 8.184403 21.549805 8.184403 29.764907 0l326.984193-327.015915C770.729158 377.088334 770.729158 363.755678 762.517125 355.575368z" p-id="2370" fill="#8a8a8a"></path></svg>