<?xml version="1.0" standalone="no"?><!DOCTYPE svg PUBLIC "-//W3C//DTD SVG 1.1//EN" "http://www.w3.org/Graphics/SVG/1.1/DTD/svg11.dtd"><svg t="1495087294257" class="icon" style="" viewBox="0 0 1024 1024" version="1.1" xmlns="http://www.w3.org/2000/svg" p-id="2380" xmlns:xlink="http://www.w3.org/1999/xlink" width="200" height="200"><defs><style type="text/css"></style></defs><path d="M511.423367 954.414155c-246.442832 0-446.225971-199.783139-446.225971-446.225971 0-246.443855 199.782116-446.225971 446.225971-446.225971s446.225971 199.781092 446.225971 446.225971C957.648314 754.629993 757.866199 954.414155 511.423367 954.414155zM716.032418 378.059452c8.379854-8.378831 8.379854-21.986757 0-30.367635l-45.555545-45.555545c-8.378831-8.414647-21.988804-8.414647-30.369681 0L511.019161 431.224302l-129.085984-129.087007c-8.379854-8.414647-21.988804-8.414647-30.369681 0l-45.553499 45.555545c-8.381901 8.379854-8.381901 21.98778 0 30.367635l129.052215 129.122823-129.052215 129.053238c-8.381901 8.380878-8.381901 21.989827 0 30.369681l45.553499 45.590338c8.379854 8.379854 21.988804 8.379854 30.369681 0l129.085984-129.122823 129.08803 129.122823c8.379854 8.379854 21.989827 8.379854 30.369681 0l45.555545-45.590338c8.379854-8.378831 8.379854-21.98778 0-30.369681l-129.055285-129.053238L716.032418 378.059452z" p-id="2381" fill="#707070"></path></svg>