<?xml version="1.0" standalone="no"?><!DOCTYPE svg PUBLIC "-//W3C//DTD SVG 1.1//EN" "http://www.w3.org/Graphics/SVG/1.1/DTD/svg11.dtd"><svg t="1494587048732" class="icon" style="" viewBox="0 0 1025 1024" version="1.1" xmlns="http://www.w3.org/2000/svg" p-id="2387" xmlns:xlink="http://www.w3.org/1999/xlink" width="200.1953125" height="200"><defs><style type="text/css"></style></defs><path d="M733.373245 866.20891c-51.925994 51.978359-136.225239 51.978359-188.180813 0-20.439542-20.377984-32.450399-32.470785-32.450399-32.470785s-12.070017 12.092601-32.411625 32.470785c-52.039717 51.978359-136.282001 51.978359-188.262558 0-51.982956-51.994148-51.982956-136.245625 0-188.239773 14.445406-14.422621 159.008192-158.974016 159.008192-158.974016s-144.562786-144.526411-159.008192-158.971817c-51.982956-52.019331-51.982956-136.245625 0-188.239773 51.980557-51.969165 136.220642-51.969165 188.262558 0 20.341808 20.387177 32.411625 32.425416 32.411625 32.425416s12.010857-12.038238 32.450399-32.425416c51.955574-51.969165 136.254619-51.969165 188.180813 0 51.991949 51.994148 51.991949 136.220642 0 188.239973-14.438611 14.445406-158.998999 158.971817-158.998999 158.971817s144.562786 144.553593 158.998999 158.974016C785.365194 729.963485 785.365194 814.214762 733.373245 866.20891L733.373245 866.20891zM512.076284 580.006556c0 0-139.484829 140.8553-158.314863 159.665147-17.907259 17.882276-17.907259 46.934378 0 64.843836 17.884474 17.895867 46.952566 17.895867 64.871217 0 17.218526-17.252703 32.448-32.459393 32.448-32.459393l-49.096113-49.043748 61.679781-61.66619 49.077925 49.080124 49.046147-49.080124 61.679781 61.66619-49.030158 49.043748c0 0 15.14773 15.20689 32.414023 32.459393 17.961822 17.895867 46.96156 17.895867 64.843836 0 17.932242-17.907259 17.932242-46.96176 0-64.843836C652.895209 720.862056 512.076284 580.006556 512.076284 580.006556L512.076284 580.006556zM100.648033 486.572104c-8.93774 8.949132-13.381527 20.680379-13.381527 32.423017 0 11.758628 4.443787 23.476283 13.381527 32.427614 17.907259 17.895867 46.963958 17.895867 64.907593 0 14.538543-14.563526 32.411825-32.427614 32.411825-32.427614s-17.87548-17.870884-32.411825-32.423017C147.611991 468.651055 118.555292 468.651055 100.648033 486.572104L100.648033 486.572104zM671.693464 298.343523c17.932242-17.918651 17.932242-46.975351 0-64.868819-17.882276-17.92085-46.882214-17.92085-64.843836 0-17.266293 17.252703-32.414023 32.434409-32.414023 32.434409l49.030158 49.077925-61.679781 61.632013-49.043748-49.057339-49.077925 49.057339-61.679781-61.632013 49.07113-49.077925c0 0-15.20689-15.181907-32.423017-32.434409-17.918651-17.92085-46.986743-17.92085-64.8962 0-17.882276 17.893668-17.882276 46.950368 0 64.869019 18.855016 18.786863 158.342244 159.63097 158.342244 159.63097S652.895209 317.130386 671.693464 298.343523L671.693464 298.343523zM858.60134 486.572104c-14.538543 14.549935-32.414023 32.423017-32.414023 32.423017s17.873082 17.86169 32.414023 32.427614c17.918651 17.895867 46.998135 17.895867 64.902996 0 8.93774-8.951331 13.429295-20.668986 13.429295-32.427614 0-11.742638-4.493753-23.474085-13.429295-32.423017C905.597077 468.651055 876.517793 468.651055 858.60134 486.572104L858.60134 486.572104zM38.977245 613.109312c-25.981185-25.990379-38.976374-60.027301-38.976374-94.114191 0-34.084691 12.995189-68.119415 38.976374-94.111992 51.973762-52.003342 136.275205-52.003342 188.267155 0 14.888705 14.902296 32.411625 32.425416 32.411625 32.425416l49.043748-49.036953 61.691173 61.643406-49.102908 49.077925 49.102908 49.055141-61.691173 61.643406-49.043748-49.046147c0 0-17.523119 17.561693-32.411625 32.461791C175.250252 665.092267 90.951007 665.092267 38.977245 613.109312L38.977245 613.109312zM985.186316 613.109312c-51.996346 51.980557-136.295592 51.980557-188.27395 0-14.877313-14.902296-32.427614-32.457194-32.427614-32.457194l-49.057339 49.043748-61.66619-61.641207 49.084721-49.059737-49.084721-49.075527 61.66619-61.643406 49.057339 49.034754c0 0 17.550301-17.523119 32.427614-32.425416 51.978359-52.003342 136.282001-52.003342 188.27395 0 25.967594 25.992577 38.971977 60.0295 38.971977 94.114191C1024.158293 553.08201 1011.15391 587.119133 985.186316 613.109312L985.186316 613.109312z" fill="#E90003" p-id="2388"></path></svg>