<?xml version="1.0" standalone="no"?><!DOCTYPE svg PUBLIC "-//W3C//DTD SVG 1.1//EN" "http://www.w3.org/Graphics/SVG/1.1/DTD/svg11.dtd"><svg t="1494608122301" class="icon" style="" viewBox="0 0 1024 1024" version="1.1" xmlns="http://www.w3.org/2000/svg" p-id="4871" xmlns:xlink="http://www.w3.org/1999/xlink" width="200" height="200"><defs><style type="text/css"></style></defs><path d="M121.281 99.237c-69.072 0-118.855 49.615-118.855 118.857v577.292c0 69.242 49.783 118.857 118.855 118.857h781.05c69.072 0 118.853-49.615 118.853-118.857V218.094c0-69.242-49.782-118.857-118.853-118.857h-781.05z m781.051 764.066H121.281c-42.932 0-67.919-24.887-67.919-67.92V218.091c0-43.039 24.993-67.92 67.919-67.92h781.05c42.922 0 67.914 24.883 67.914 67.92v577.292c0.001 0-15.937 67.92-67.914 67.92zM620.294 404.862h173.545c13.012 0 23.596-11.422 23.596-25.47 0-14.042-10.583-25.466-23.596-25.466H620.294c-13.009 0-23.593 11.424-23.593 25.466 0.001 14.048 10.583 25.47 23.593 25.47z m0 135.839h173.545c13.012 0 23.596-11.427 23.596-25.468 0-14.051-10.583-25.47-23.596-25.47H620.294c-13.009 0-23.593 11.419-23.593 25.47 0.001 14.042 10.583 25.468 23.593 25.468z m258.335 84.892H620.401c-13.068 0-23.698 11.429-23.698 25.474 0 14.044 10.633 25.462 23.698 25.462h258.228c13.073 0 23.702-11.419 23.702-25.462 0-14.047-10.633-25.474-23.702-25.474z m-390.418-33.668c-27.791-29.526-63.311-51.042-102.71-62.211l-3.325-0.937 3.045-1.618c42.591-22.561 69.049-65.758 69.049-112.75 0-70.798-58.246-128.399-129.838-128.399-71.617 0-129.878 57.6-129.878 128.399 0 46.978 26.447 90.174 69.03 112.735l3.045 1.618-3.318 0.945c-39.293 11.135-74.748 32.56-102.531 61.964-28.359 30.013-47.474 67.131-55.273 107.345-1.202 6.137 0.09 12.358 3.634 17.53 3.549 5.175 8.955 8.679 15.165 9.865 1.566 0.318 3.146 0.484 4.708 0.484 11.161 0 20.819-8.021 22.976-19.077 15.791-81.471 88.957-133.161 173.043-133.161 84.358 0 156.221 51.952 171.803 133.765 2.097 11.037 11.869 19.047 23.225 19.047a23.81 23.81 0 0 0 4.419-0.39c12.822-2.407 21.285-14.667 18.86-27.339-7.691-40.398-26.755-77.675-55.127-107.811zM325.052 336.946c46.803 0 84.879 38.086 84.879 84.9 0 46.806-38.076 84.893-84.879 84.893-46.821 0-84.916-38.086-84.916-84.893 0.001-46.815 38.094-84.9 84.916-84.9z m0 0z" fill="#8a8a8a" p-id="4872"></path></svg>