<?xml version="1.0" standalone="no"?><!DOCTYPE svg PUBLIC "-//W3C//DTD SVG 1.1//EN" "http://www.w3.org/Graphics/SVG/1.1/DTD/svg11.dtd"><svg t="1494607981372" class="icon" style="" viewBox="0 0 1024 1024" version="1.1" xmlns="http://www.w3.org/2000/svg" p-id="3099" xmlns:xlink="http://www.w3.org/1999/xlink" width="200" height="200"><defs><style type="text/css"></style></defs><path d="M869.181601 179.473581 148.678305 179.473581c-46.001591 0-83.134838 37.131689-83.134838 83.131349L65.543466 761.394047c0 45.99966 37.133247 83.131349 83.134838 83.131349l720.503296 0c46.001591 0 83.134838-37.131689 83.134838-83.131349L952.316439 262.60493C952.316439 216.60527 915.183191 179.473581 869.181601 179.473581zM141.472903 788.827863l-20.229566-20.228717 228.621317-228.611721 20.229566 20.228717L141.472903 788.827863zM876.387002 788.827863 647.765685 560.216141l20.229566-20.228717 228.621317 228.611721L876.387002 788.827863zM536.641224 604.275613l0 18.565844-55.423567 0L481.217658 604.275613 120.96601 270.363637l35.194001-35.469839 352.769942 326.984193 352.769942-326.984193 35.194001 35.469839L536.641224 604.275613z" p-id="3100" fill="#8a8a8a"></path></svg>